<?xml version="1.0" encoding="UTF-8"?>
<svg version="1.1" xmlns="http://www.w3.org/2000/svg" width="1024" height="1024">
<rect width="1024" height="1024" rx="80" ry="80" fill="#139F37"/>
<path d="M0 0 C0.79083984 0.19432617 1.58167969 0.38865234 2.39648438 0.58886719 C21.72625863 5.41049991 40.53272118 11.56507279 58.12646484 21 C60.03900474 22.02081879 61.96455525 23.01259284 63.89453125 24 C94.89474915 39.98448735 125.15724096 65.00410472 146 93 C146.83680409 94.08497144 147.67407504 95.1695829 148.51171875 96.25390625 C173.3853358 128.87946358 189.66912962 165.81552719 197.8125 205.9375 C198.10471436 207.37234741 198.10471436 207.37234741 198.40283203 208.83618164 C201.54376242 225.15103196 202.40947719 241.16680461 202.375 257.75 C202.37368576 259.29936752 202.37368576 259.29936752 202.37234497 260.8800354 C202.20047466 322.50297733 181.41947039 382.94607382 140.38012695 429.43139648 C139.39195053 430.55452288 138.41225617 431.68513456 137.43823242 432.82055664 C126.39810141 445.6342282 114.35007538 457.84940953 100.64306641 467.80566406 C98.99145599 469.0062106 97.36070715 470.2315774 95.73046875 471.4609375 C41.06703684 512.16142756 -27.65903268 528.15977289 -94.83984375 518.9765625 C-140.86900251 511.9842418 -182.45646403 493.71836767 -219 465 C-219.81017578 464.36771484 -219.81017578 464.36771484 -220.63671875 463.72265625 C-235.46069073 452.03524257 -249.75561541 438.1799192 -261 423 C-261.45826172 422.40171387 -261.91652344 421.80342773 -262.38867188 421.18701172 C-293.79454674 380.14933511 -314.69202766 329.04639937 -316 277 C-316.0515625 275.77925781 -316.103125 274.55851562 -316.15625 273.30078125 C-317.06094479 235.41668674 -307.33947543 197.85730711 -293 163 C-270.24295898 187.87019483 -263.03975664 233.54401856 -260.66442871 266.15365601 C-258.5565037 294.63059612 -253.8716832 321.1916251 -241 347 C-240.63616211 347.73331543 -240.27232422 348.46663086 -239.89746094 349.22216797 C-229.76053661 369.44757779 -216.56461257 386.69099292 -201 403 C-200.09894531 403.98033203 -200.09894531 403.98033203 -199.1796875 404.98046875 C-165.87160143 440.21339397 -114.62112442 459.108158 -67.02294922 461.1262207 C-14.08141522 462.50149558 38.42561559 443.3595054 77.0390625 406.828125 C77.52793945 406.36083984 78.01681641 405.89355469 78.52050781 405.41210938 C79.5016484 404.4756544 80.48795247 403.54457769 81.47949219 402.61914062 C99.97004341 385.33528985 113.33949097 363.8016443 124 341 C124.52078125 339.91074219 125.0415625 338.82148437 125.578125 337.69921875 C146.78809987 291.09308976 147.37614995 236.7939725 130.23193359 188.87109375 C120.23846691 162.19534578 105.57673081 138.2125132 86.17578125 117.36328125 C84.49188518 115.53427385 82.9126415 113.6990506 81.375 111.75 C78.2205592 108.0974896 74.68416237 105.10504654 71 102 C70.14664062 101.2471875 69.29328125 100.494375 68.4140625 99.71875 C42.0146278 76.863349 9.29751254 62.74118039 -25 57 C-26.08700195 56.81598633 -27.17400391 56.63197266 -28.29394531 56.44238281 C-39.03401714 54.80998501 -49.65443772 54.59884744 -60.5 54.625 C-61.42852783 54.6262085 -62.35705566 54.62741699 -63.3137207 54.62866211 C-77.55388285 54.67891141 -91.17849579 55.28635332 -105 59 C-106.03431152 59.27376465 -107.06862305 59.5475293 -108.13427734 59.82958984 C-136.5590553 67.55439693 -163.28638717 80.02674307 -186 99 C-187.09464106 99.89243148 -188.18970534 100.78434404 -189.28515625 101.67578125 C-196.62609744 107.71226073 -203.39985167 114.16177017 -210 121 C-212.99804087 117.39298208 -215.5284762 113.67095977 -218 109.6875 C-225.99460044 97.04558373 -235.28224299 85.35171616 -245 74 C-243.40780713 69.89330741 -240.44387319 67.32262118 -237.25 64.4375 C-236.67435303 63.9130127 -236.09870605 63.38852539 -235.50561523 62.84814453 C-229.2619984 57.22981762 -222.71881837 52.03538937 -216 47 C-215.42636719 46.56945312 -214.85273437 46.13890625 -214.26171875 45.6953125 C-205.52493021 39.1870953 -196.48844743 33.3497766 -187 28 C-185.86594727 27.35611328 -185.86594727 27.35611328 -184.70898438 26.69921875 C-156.3786902 10.77919919 -125.88974443 1.53042865 -94 -4 C-93.23751953 -4.13422363 -92.47503906 -4.26844727 -91.68945312 -4.40673828 C-62.2822138 -9.31484794 -28.76848604 -7.10259303 0 0 Z " fill="#FEFEFE" transform="translate(766,264)"/>
<path d="M0 0 C0.71782654 -0.00067474 1.43565308 -0.00134949 2.17523193 -0.00204468 C58.26712083 0.08094296 114.22774711 20.0206084 157.1875 56.25 C158.1053125 56.98476563 159.023125 57.71953125 159.96875 58.4765625 C174.27746274 70.14755799 188.15228446 83.40655321 199.1875 98.25 C200.05974752 99.39334233 200.93215461 100.53656293 201.8046875 101.6796875 C224.50867062 131.73094283 240.25798856 165.68743854 249.1875 202.25 C249.39600586 203.10335937 249.60451172 203.95671875 249.81933594 204.8359375 C262.71084435 259.2715818 256.25754285 317.72286563 238.1875 370.25 C233.78304132 366.49417894 231.30040454 361.66166706 228.5 356.6875 C227.70770996 355.28455688 227.70770996 355.28455688 226.89941406 353.85327148 C212.27642637 327.65264607 198.17276064 296.39990958 198.01171875 265.90625 C197.99198496 264.2617845 197.97093921 262.61733433 197.94873047 260.97290039 C197.93759216 260.11971222 197.92645386 259.26652405 197.91497803 258.38748169 C197.68181223 243.00476885 197.07127276 228.21202888 193.1875 213.25 C192.82760986 211.82059082 192.82760986 211.82059082 192.46044922 210.36230469 C183.83524808 176.76142683 168.12881255 145.67112073 143.69677734 120.79443359 C142.15914493 119.22098444 140.65131285 117.62250063 139.14453125 116.01953125 C105.06354414 80.25507057 55.28665865 60.34318307 6.26953125 59.06640625 C-49.75535033 58.17222571 -101.2133079 78.27245181 -141.66625977 117.02587891 C-146.81508157 122.10792231 -151.32016364 127.58319662 -155.8125 133.25 C-156.22435547 133.76369141 -156.63621094 134.27738281 -157.06054688 134.80664062 C-163.28710282 142.58743703 -168.92071174 150.54591937 -173.8125 159.25 C-174.26915039 160.06227051 -174.72580078 160.87454102 -175.19628906 161.71142578 C-201.79547684 209.59862802 -209.50094752 264.30052338 -194.84448242 317.40600586 C-183.49156175 356.30343301 -161.17036314 395.84147659 -128.8125 421.25 C-128.26787109 421.67990234 -127.72324219 422.10980469 -127.16210938 422.55273438 C-100.91225595 443.14031575 -71.3914542 457.0030488 -38.8125 464.25 C-38.04695801 464.42934082 -37.28141602 464.60868164 -36.49267578 464.79345703 C-24.05945961 467.60257722 -11.43258182 467.55756353 1.25 467.625 C2.09223114 467.6330365 2.93446228 467.641073 3.80221558 467.64935303 C19.34088578 467.76166026 34.61367924 466.18345323 49.625 462 C50.39537598 461.78947998 51.16575195 461.57895996 51.95947266 461.36206055 C83.87451309 452.41232317 112.26016412 437.83279426 136.796875 415.41796875 C139.01900207 413.40280449 141.28120811 411.44754733 143.5625 409.5 C146.47850302 406.97789255 148.7988334 404.28176915 151.1875 401.25 C151.8475 401.25 152.5075 401.25 153.1875 401.25 C153.86232422 402.4875 153.86232422 402.4875 154.55078125 403.75 C162.15069409 417.47939463 171.06296831 430.1269564 180.875 442.359375 C182.69019706 444.62837132 184.46261016 446.91232035 186.1875 449.25 C175.76869201 475.02910776 125.6171155 497.1282712 101.671875 507.32080078 C84.90961652 514.2847222 67.61954491 518.81236573 49.875 522.5 C49.16077881 522.65114258 48.44655762 522.80228516 47.71069336 522.95800781 C33.00316332 525.85150656 18.25930279 526.59861583 3.3125 526.5 C2.48366302 526.49723053 1.65482605 526.49446106 0.8008728 526.49160767 C-10.75881172 526.44640647 -22.21636167 526.21453431 -33.67626953 524.55761719 C-35.8840004 524.23970394 -38.09470865 523.96675034 -40.30859375 523.6953125 C-88.78079134 517.3259146 -135.36496335 494.49017001 -171.8125 462.25 C-172.65941406 461.51394531 -173.50632812 460.77789063 -174.37890625 460.01953125 C-185.10163117 450.57045263 -195.03569525 440.54124071 -203.8125 429.25 C-204.60011719 428.26773437 -205.38773438 427.28546875 -206.19921875 426.2734375 C-213.03844009 417.67374492 -219.05709846 408.60388235 -224.8125 399.25 C-225.2029248 398.61787598 -225.59334961 397.98575195 -225.99560547 397.33447266 C-244.52682029 366.93684868 -255.12468267 332.36796279 -259.8125 297.25 C-259.98595947 296.03828125 -260.15941895 294.8265625 -260.33813477 293.578125 C-260.90644133 288.9809961 -260.97428953 284.42846021 -260.98046875 279.80078125 C-260.98379715 278.90747604 -260.98712555 278.01417084 -260.99055481 277.09379578 C-260.99559574 275.20535797 -260.99796402 273.31691133 -260.99780273 271.4284668 C-260.99995932 268.61556156 -261.01806195 265.80306885 -261.03710938 262.99023438 C-261.09104626 246.09872137 -260.08278086 229.30830525 -256.5625 212.75 C-256.34634033 211.7094043 -256.13018066 210.66880859 -255.9074707 209.59667969 C-246.085188 163.61228879 -225.25435481 122.21967823 -193.8125 87.25 C-193.30831543 86.68410156 -192.80413086 86.11820312 -192.28466797 85.53515625 C-185.8337772 78.31245151 -179.18922556 71.54526117 -171.8125 65.25 C-170.9359375 64.48558594 -170.059375 63.72117187 -169.15625 62.93359375 C-156.01704934 51.68947011 -141.90303686 41.69382602 -126.8125 33.25 C-126.12172363 32.85748047 -125.43094727 32.46496094 -124.71923828 32.06054688 C-86.52423841 10.50808104 -43.73293959 0.03747848 0 0 Z " fill="#FEFEFE" transform="translate(316.8125,257.75)"/>
<path d="M0 0 C0.33 0 0.66 0 1 0 C1.04789169 0.98590622 1.09578339 1.97181244 1.14512634 2.9875946 C1.59910814 12.32839253 2.0550283 21.66909415 2.51279354 31.00970745 C2.74801213 35.81054339 2.98257348 40.61140948 3.21557617 45.41235352 C3.44091817 50.05493256 3.66806054 54.69742048 3.89639473 59.33985329 C3.98272958 61.10141756 4.06844118 62.8630125 4.15348625 64.62463951 C4.5320481 72.45886737 4.91497478 80.28341522 5.5546875 88.1015625 C5.96793323 93.20220774 6.13322877 98.24767549 6.09765625 103.36328125 C6.09553383 104.56757027 6.09553383 104.56757027 6.09336853 105.79618835 C6.08787584 108.3016674 6.07534598 110.80704906 6.0625 113.3125 C6.05747105 115.03580598 6.05291063 116.75911339 6.04882812 118.48242188 C6.037942 122.65498409 6.02075565 126.82747568 6 131 C8.63595625 128.4990689 10.69556735 126.15846653 12.48828125 123 C12.93945312 122.20988525 13.390625 121.41977051 13.85546875 120.60571289 C14.33628906 119.74582764 14.81710937 118.88594238 15.3125 118 C16.0859375 116.63186157 16.0859375 116.63186157 16.875 115.23608398 C22.51839095 105.19007733 27.92795738 95.01738933 33.34375 84.84765625 C36.98832678 78.00743103 40.69563909 71.20309415 44.42163086 64.40698242 C47.30369292 59.13946424 50.15125757 53.85485961 52.97265625 48.5546875 C53.31227386 47.91742737 53.65189148 47.28016724 54.00180054 46.62359619 C55.67664589 43.48044439 57.34803141 40.33553938 59.01367188 37.1875 C59.61888672 36.05054688 60.22410156 34.91359375 60.84765625 33.7421875 C61.38398682 32.7301123 61.92031738 31.71803711 62.47290039 30.67529297 C63.83684844 28.2858217 65.29164579 26.15168765 67 24 C66.39403404 27.65210709 65.38092942 30.67108603 63.8046875 34.015625 C63.34425049 35.00159668 62.88381348 35.98756836 62.40942383 37.00341797 C61.90306396 38.07479004 61.3967041 39.14616211 60.875 40.25 C59.77105029 42.61148082 58.668148 44.973428 57.56640625 47.3359375 C57.27664413 47.95594635 56.98688202 48.5759552 56.68833923 49.2147522 C54.58319709 53.72585864 52.51410415 58.25232092 50.46484375 62.7890625 C50.01879539 63.77640381 50.01879539 63.77640381 49.56373596 64.78369141 C48.95469999 66.13217839 48.34571708 67.48068933 47.73678589 68.82922363 C41.18921638 83.32134465 34.45989386 97.72241422 27.6340332 112.08544922 C25.74847551 116.05344505 23.87074888 120.02499802 22 124 C21.5467334 124.96292969 21.0934668 125.92585938 20.62646484 126.91796875 C18.58309609 131.27780668 18.58309609 131.27780668 18 136 C22.21358465 135.46057974 24.95068356 132.91016178 28.125 130.3125 C29.38366743 129.3041291 30.64280482 128.29634461 31.90234375 127.2890625 C32.56862793 126.75313477 33.23491211 126.21720703 33.92138672 125.66503906 C37.48662947 122.80915986 41.08451872 119.99553842 44.6875 117.1875 C45.4410376 116.6001709 46.1945752 116.0128418 46.97094727 115.40771484 C53.22239769 110.55798511 59.57580053 105.85655835 65.95922852 101.18261719 C73.33000363 95.77944823 80.59009 90.23947091 87.83251953 84.66601562 C91.73646729 81.66527903 95.65018612 78.67731504 99.5625 75.6875 C101.00134182 74.58729155 102.44014777 73.48703618 103.87890625 72.38671875 C104.90886719 71.59910156 105.93882812 70.81148438 107 70 C107.66 70.33 108.32 70.66 109 71 C95.83512734 83.43455856 95.83512734 83.43455856 89.5625 88.4375 C83.56245629 93.23931013 78.03347074 98.50274591 72.4453125 103.76953125 C69.316896 106.71535863 66.12526438 109.57262147 62.87109375 112.37890625 C56.31523804 118.05882299 49.93311363 123.94325197 43.55859375 129.82519531 C40.99609729 132.18687437 38.41627129 134.52231499 35.79296875 136.81640625 C35.2817749 137.26765869 34.77058105 137.71891113 34.24389648 138.18383789 C32.82906064 139.4303455 31.40692394 140.66855205 29.984375 141.90625 C27.65605256 143.88212071 27.65605256 143.88212071 28 147 C33.21466173 146.41540311 38.19783071 145.58383396 43.30859375 144.35546875 C44.76547478 144.01012614 46.22242865 143.6650907 47.67944336 143.3203125 C48.83716751 143.04429199 48.83716751 143.04429199 50.01828003 142.76269531 C68.42937089 138.38526238 86.92044151 134.4013822 105.4375 130.5 C106.69827362 130.23311371 107.95904724 129.96622742 109.25802612 129.69125366 C112.87824282 128.92569214 116.49945389 128.16504727 120.12109375 127.40625 C121.7438623 127.06307487 121.7438623 127.06307487 123.39941406 126.71296692 C128.92527195 125.56305193 134.38721559 124.60237632 140 124 C137.38021582 125.74652279 135.80568408 126.48379319 132.87207031 127.32177734 C132.0357608 127.56362762 131.19945129 127.80547791 130.33779907 128.05465698 C129.42710663 128.31247955 128.51641418 128.57030212 127.578125 128.8359375 C126.6222348 129.11140411 125.6663446 129.38687073 124.68148804 129.67068481 C122.61680536 130.26551525 120.5515028 130.85819728 118.48565674 131.44897461 C113.02057712 133.01304735 107.56097643 134.59597023 102.1015625 136.1796875 C100.99690643 136.49995911 99.89225037 136.82023071 98.75411987 137.15020752 C88.34912598 140.17454731 77.97970703 143.30819575 67.625 146.5 C66.46828796 146.85514679 66.46828796 146.85514679 65.28820801 147.21746826 C56.03817777 150.05997984 46.83410223 153.01204812 37.67837524 156.14660645 C32.21302116 158 32.21302116 158 30 158 C30.50610376 160.49631802 30.50610376 160.49631802 32 163 C34.99461701 164.35495973 34.99461701 164.35495973 38.70703125 165.0703125 C39.40273224 165.23301636 40.09843323 165.39572021 40.81521606 165.56335449 C43.14361234 166.10351821 45.47760963 166.61370499 47.8125 167.125 C49.46416301 167.50334709 51.11527743 167.88409607 52.76586914 168.26708984 C56.30931596 169.08813779 59.85474083 169.89983742 63.40136719 170.70703125 C71.97958879 172.67305389 80.51759996 174.80433889 89.06103516 176.91531372 C107.33989947 181.42510609 125.64987207 185.78968339 144 190 C139.67858125 191.29347317 135.97461645 190.52754226 131.6171875 189.7421875 C130.36622787 189.5274453 130.36622787 189.5274453 129.08999634 189.30836487 C127.29077689 188.99898626 125.49215823 188.68609752 123.6940918 188.37008667 C118.91101881 187.53008718 114.12348873 186.71636811 109.3359375 185.90234375 C108.37012756 185.73765091 107.40431763 185.57295807 106.40924072 185.40327454 C97.79133491 183.94334732 89.15363055 182.66427916 80.5 181.4375 C68.64918204 179.74799133 56.85029553 177.83485965 45.0625 175.75 C44.3185498 175.61898895 43.57459961 175.48797791 42.80810547 175.35299683 C30.57337416 173.19112472 30.57337416 173.19112472 27 172 C27.22836382 175.57135633 27.80362052 176.81090556 30.421875 179.33203125 C31.52102104 180.17240438 32.63141686 180.99817771 33.75 181.8125 C34.36198242 182.27551514 34.97396484 182.73853027 35.60449219 183.21557617 C36.9744039 184.25074387 38.34870165 185.2801243 39.7265625 186.3046875 C43.03108416 188.76888406 46.30409352 191.27384212 49.58056641 193.77514648 C52.27785572 195.83375992 54.97870573 197.88764086 57.6796875 199.94140625 C68.75713922 208.37879211 79.73221621 216.94356902 90.58813477 225.6640625 C95.38288122 229.51482913 100.21176825 233.32023771 105.05224609 237.11328125 C110.06217056 241.04150107 115.03876924 245.01043886 120 249 C116.53692652 249 115.69447932 248.36907216 112.88671875 246.46484375 C112.06268555 245.91078857 111.23865234 245.3567334 110.38964844 244.78588867 C109.49793945 244.17592041 108.60623047 243.56595215 107.6875 242.9375 C106.75325195 242.30626221 105.81900391 241.67502441 104.85644531 241.0246582 C101.89930994 239.02367644 98.94915476 237.01272111 96 235 C94.19937163 233.77581677 92.39859458 232.5518522 90.59765625 231.328125 C84.04066944 226.8667567 77.49077613 222.39501681 70.95117188 217.90820312 C57.17879018 208.45960855 43.31378556 199.21506406 29.14306641 190.37255859 C27.2392507 189.15323165 25.40965765 187.86921098 23.57421875 186.55078125 C22.72472656 186.03902344 21.87523437 185.52726563 21 185 C20.01 185.33 19.02 185.66 18 186 C20.22757629 190.02171594 22.45709103 194.04235455 24.6875 198.0625 C25.02701691 198.67467377 25.36653381 199.28684753 25.71633911 199.91757202 C29.73811953 207.16683388 33.78487639 214.39985508 37.8918457 221.60131836 C43.78815677 231.94384472 49.45184014 242.39279306 55.0133667 252.91775513 C60.23138451 262.79165829 65.62051654 272.54100426 71.27929688 282.171875 C71.78654297 283.0484375 72.29378906 283.925 72.81640625 284.828125 C73.48845093 285.9713623 73.48845093 285.9713623 74.17407227 287.13769531 C74.44662842 287.75225586 74.71918457 288.36681641 75 289 C74.67 289.66 74.34 290.32 74 291 C72.45708643 288.62580238 70.91543138 286.25080804 69.375 283.875 C68.87846924 283.10929687 68.38193848 282.34359375 67.87036133 281.5546875 C65.19977808 277.42791098 62.54583979 273.29187391 59.92578125 269.1328125 C51.79423684 256.23445763 43.39804906 243.53046884 34.91625977 230.86083984 C30.09234862 223.65296754 25.29861901 216.43171637 20.625 209.125 C14.72725498 199.75755005 14.72725498 199.75755005 8 191 C7.34 191 6.68 191 6 191 C6.11609619 191.75869385 6.23219238 192.5173877 6.35180664 193.29907227 C8.28790344 206.78883389 9.31347172 220.3606216 10.4375 233.9375 C10.65773364 236.57153844 10.87803039 239.2055716 11.09838867 241.83959961 C12.38186403 257.24361205 13.63364785 272.65011348 14.8125 288.0625 C14.87557343 288.87331024 14.93864685 289.68412048 15.00363159 290.51950073 C15.63606452 298.69193837 16.1544907 306.79573093 16 315 C15.67 315 15.34 315 15 315 C14.84031738 313.8968042 14.68063477 312.7936084 14.51611328 311.65698242 C13.87158465 307.20732105 13.22540904 302.75790003 12.5786438 298.30856323 C12.27608886 296.22698932 11.97374121 294.14538527 11.67160034 292.06375122 C9.70379118 278.51544131 7.70192342 264.97278587 5.6554718 251.43616295 C5.30955068 249.14695766 4.96428981 246.85765379 4.6192627 244.5683136 C4.38989259 243.04660034 4.16052247 241.52488708 3.93115234 240.00317383 C3.81796787 239.25214795 3.7047834 238.50112207 3.5881691 237.72733784 C2.90828058 233.21933717 2.22363553 228.71208815 1.53579998 224.20529366 C1.10279729 221.36111782 0.67404916 218.51631177 0.24635506 215.67133331 C-0.05024013 213.70765094 -0.35213866 211.74477189 -0.65419006 209.78192139 C-1.49989804 204.13486497 -2.26190427 198.71288578 -2 193 C-2.66 193 -3.32 193 -4 193 C-4.14767822 193.5369751 -4.29535645 194.0739502 -4.44750977 194.62719727 C-6.81988711 202.90204265 -9.87429479 210.90135529 -12.9375 218.9375 C-13.23091278 219.7106958 -13.52432556 220.4838916 -13.82662964 221.28051758 C-21.64480514 241.87927841 -29.73762036 262.37185203 -37.80900574 282.87232971 C-40.57429861 289.9016654 -43.31071709 296.9411709 -46 304 C-47.28373708 300.14878877 -46.22584993 297.77770478 -45 294.08203125 C-44.77297394 293.37320801 -44.54594788 292.66438477 -44.31204224 291.93408203 C-43.813162 290.37990471 -43.31021234 288.82702933 -42.80377197 287.27529907 C-41.70446745 283.90697292 -40.62423507 280.5326202 -39.54251099 277.15861511 C-38.95929267 275.3404233 -38.37501573 273.52257078 -37.7897644 271.70503235 C-34.16206988 260.43033164 -30.64769364 249.12034216 -27.125 237.8125 C-25.89911089 233.88130011 -24.67243915 229.95034501 -23.4453125 226.01953125 C-23.15658264 225.09449295 -22.86785278 224.16945465 -22.57037354 223.21638489 C-19.73454468 214.13762804 -16.87098479 205.06769197 -14 196 C-14.66153076 196.60400635 -15.32306152 197.2080127 -16.00463867 197.83032227 C-20.28819377 201.74139431 -24.60749723 205.4921097 -29.13671875 209.1171875 C-35.27907291 214.12419801 -40.92420992 219.56944365 -46.5 225.1875 C-47.00401337 225.69333618 -47.50802673 226.19917236 -48.02731323 226.72033691 C-55.09946791 233.83549405 -61.82444287 241.02876419 -67.68505859 249.18896484 C-69.1907678 251.26273961 -70.7437158 253.29655024 -72.30078125 255.33203125 C-84.60920968 271.54019338 -95.3829952 288.55089069 -104 307 C-104.67960966 308.4401409 -105.35929877 309.88024431 -106.0390625 311.3203125 C-107.70944028 314.87262202 -109.36021715 318.4334723 -111 322 C-115.08932164 319.70967753 -118.64322724 316.98184051 -122.1875 313.9375 C-122.77684326 313.43162354 -123.36618652 312.92574707 -123.97338867 312.40454102 C-129.45162095 307.61841491 -134.65284127 302.56322375 -139.8125 297.4375 C-140.60744873 296.65173584 -141.40239746 295.86597168 -142.22143555 295.05639648 C-143.32805542 293.94373413 -143.32805542 293.94373413 -144.45703125 292.80859375 C-145.11678955 292.14657959 -145.77654785 291.48456543 -146.45629883 290.80249023 C-148 289 -148 289 -149 286 C-148.46191406 284.08081055 -148.46191406 284.08081055 -147.515625 281.88671875 C-146.98666626 280.64921875 -146.98666626 280.64921875 -146.44702148 279.38671875 C-145.85449585 278.05060547 -145.85449585 278.05060547 -145.25 276.6875 C-144.84531494 275.76195312 -144.44062988 274.83640625 -144.02368164 273.8828125 C-133.34068321 249.7613528 -121.23154731 227.92785634 -103.265625 208.4765625 C-101.37606515 206.41107811 -99.53108038 204.31993987 -97.6953125 202.20703125 C-94.09086772 198.07637608 -90.38070864 194.05559087 -86.625 190.0625 C-85.97523193 189.37027344 -85.32546387 188.67804688 -84.65600586 187.96484375 C-79.86455161 182.87745899 -74.98950229 177.89367989 -70 173 C-81.32529229 173.6301248 -92.39205343 175.63291196 -103.54931641 177.56689453 C-106.01092116 177.99163644 -108.47403642 178.40650987 -110.9375 178.8203125 C-111.68854004 178.95357941 -112.43958008 179.08684631 -113.21337891 179.22415161 C-119.62746384 180.29331919 -119.62746384 180.29331919 -123 179 C-119.39310763 178.0294836 -115.78534372 177.06226328 -112.17718506 176.09646606 C-110.17225187 175.5584079 -108.16838465 175.01650147 -106.16455078 174.47436523 C-99.45920507 172.66859166 -92.7496568 170.91650433 -85.98805237 169.33241272 C-82.87175386 168.60193894 -79.76039712 167.85139601 -76.64883423 167.1010437 C-75.15319699 166.74681119 -73.65512073 166.40269723 -72.15463257 166.0696106 C-59.35713085 163.22310581 -51.31556387 158.3915022 -42 149 C-42.83556931 148.72295731 -43.67113861 148.44591461 -44.5320282 148.16047668 C-52.4610064 145.53092071 -60.38898376 142.89837278 -68.31589031 140.26257801 C-72.38982876 138.90805666 -76.46412619 137.55463798 -80.53930664 136.20385742 C-84.48245082 134.89679504 -88.42456997 133.58668205 -92.36603737 132.27457237 C-93.85933161 131.77802602 -95.35297356 131.2825239 -96.84699059 130.78815651 C-105.99937604 127.75873502 -115.03547256 124.55543215 -124 121 C-120.57048919 119.85682973 -119.70576858 120.15425942 -116.33203125 121.16015625 C-115.32011719 121.452854 -114.30820312 121.74555176 -113.265625 122.04711914 C-112.12609375 122.38219482 -110.9865625 122.71727051 -109.8125 123.0625 C-95.38863351 127.1639503 -80.88047924 130.9199945 -66.34140015 134.59054565 C-63.78016488 135.23859159 -61.21995764 135.89071416 -58.66079712 136.54690552 C-55.01602062 137.48060454 -51.36797815 138.40028229 -47.71875 139.31640625 C-46.6115007 139.60245728 -45.5042514 139.8885083 -44.3634491 140.18322754 C-43.33536636 140.4380188 -42.30728363 140.69281006 -41.24804688 140.95532227 C-40.35178589 141.18212173 -39.4555249 141.4089212 -38.53210449 141.64259338 C-35.75316406 142.0348409 -33.70055265 141.70285628 -31 141 C-30.67 140.01 -30.34 139.02 -30 138 C-39.78687688 128.01536477 -39.78687688 128.01536477 -50.14453125 118.63671875 C-53.16962078 115.96827135 -55.94951366 113.05802725 -58.78125 110.1875 C-60.79430632 108.20279658 -62.85446403 106.33903084 -65 104.5 C-68.79358733 101.24835372 -72.27392647 97.74286906 -75.78125 94.1875 C-77.79430632 92.20279658 -79.85446403 90.33903084 -82 88.5 C-85.78876801 85.25248456 -89.26589223 81.75325772 -92.765625 78.19921875 C-94.85941277 76.1383752 -97.01395215 74.21650315 -99.25 72.3125 C-102.58341411 69.45909752 -105.30214676 66.45662446 -108 63 C-105.121582 64.3314565 -102.80803749 65.83298322 -100.3828125 67.87109375 C-99.70041504 68.43997314 -99.01801758 69.00885254 -98.31494141 69.5949707 C-97.23092041 70.50702271 -97.23092041 70.50702271 -96.125 71.4375 C-90.68173601 75.97199889 -85.21378852 80.4583435 -79.625 84.8125 C-70.83484595 91.67404399 -62.25610734 98.76926206 -53.75878906 105.98876953 C-49.83527149 109.31411909 -45.85545967 112.55659623 -41.8203125 115.74609375 C-39.50682552 117.59496077 -37.2147496 119.46402398 -34.9296875 121.34765625 C-34.21014893 121.93885254 -33.49061035 122.53004883 -32.74926758 123.13916016 C-31.31139968 124.3216247 -29.87625352 125.50740805 -28.4440918 126.69677734 C-27.78320557 127.23898926 -27.12231934 127.78120117 -26.44140625 128.33984375 C-25.85045166 128.82831787 -25.25949707 129.31679199 -24.65063477 129.82006836 C-22.08678918 131.65279513 -20.12779602 132 -17 132 C-21.29005516 119.29003959 -26.20359486 106.8832554 -31.31723022 94.48425293 C-33.09666492 90.16856426 -34.86594231 85.84873618 -36.63572693 81.52908325 C-37.51744025 79.37711766 -38.39956707 77.22532144 -39.28211975 75.07369995 C-42.68674565 66.77270796 -46.07903423 58.46696734 -49.42572021 50.14242554 C-50.16746096 48.2997813 -50.91398723 46.4590657 -51.66064453 44.6184082 C-52.09618652 43.53261475 -52.53172852 42.44682129 -52.98046875 41.328125 C-53.35067139 40.4093457 -53.72087402 39.49056641 -54.10229492 38.54394531 C-54.98647962 36.03831447 -55.54890281 33.61524407 -56 31 C-53.40653412 34.19881795 -51.67146279 37.50604259 -49.90234375 41.21875 C-49.27158307 42.53223488 -48.64080405 43.84571095 -48.01000977 45.15917969 C-47.67397736 45.86312866 -47.33794495 46.56707764 -46.99172974 47.2923584 C-41.17549147 59.4720277 -35.23094912 71.58383174 -29.1640625 83.640625 C-28.57804764 84.80625977 -27.99203278 85.97189453 -27.38825989 87.17285156 C-25.02828194 91.86474648 -22.66714908 96.55600149 -20.29440308 101.24145508 C-18.61953571 104.54904031 -16.9518629 107.86017195 -15.28515625 111.171875 C-14.78065948 112.16221741 -14.27616272 113.15255981 -13.75637817 114.1729126 C-11.30130353 119.06502585 -9.26474874 123.66804431 -8 129 C-6.35 129 -4.7 129 -3 129 C-3.00507568 128.04150146 -3.01015137 127.08300293 -3.01538086 126.09545898 C-3.04890812 116.85873512 -2.89714251 107.64014122 -2.62988281 98.40771484 C-2.22583104 84.34495643 -1.94366025 70.28188682 -1.74609375 56.21484375 C-1.73573153 55.48696215 -1.7253693 54.75908054 -1.71469307 54.00914192 C-1.60995082 46.65038434 -1.50881742 39.2916106 -1.41948795 31.93264866 C-1.38483302 29.1471449 -1.34663294 26.36169671 -1.30768013 23.57625008 C-1.28198838 21.64913496 -1.26103364 19.72195851 -1.24021912 17.79478455 C-1.15432195 11.78040808 -0.91083949 5.94811376 0 0 Z " fill="#FCFDFB" transform="translate(712,355)"/>
<path d="M0 0 C0.33 0 0.66 0 1 0 C2.04669261 9.86260211 2.47984154 19.74556965 2.9375 29.6484375 C3.02319842 31.46897105 3.10905789 33.28949703 3.19506836 35.11001587 C3.37473832 38.9241856 3.55274085 42.73842831 3.72949219 46.55273438 C3.9518673 51.34966882 4.17793372 56.14642021 4.40516663 60.94312668 C5.41511073 82.29147467 6.34866385 103.63729942 7 125 C9.80082154 122.27828475 11.74429657 119.99035406 13.4453125 116.46484375 C13.87706787 115.58320557 14.30882324 114.70156738 14.75366211 113.79321289 C15.20620361 112.85082764 15.65874512 111.90844238 16.125 110.9375 C17.1064269 108.93408865 18.08952909 106.9314972 19.07421875 104.9296875 C19.56583496 103.92776367 20.05745117 102.92583984 20.56396484 101.89355469 C22.62170666 97.7472854 24.76778908 93.6510298 26.9375 89.5625 C27.75912654 88.01172508 28.5807409 86.46094372 29.40234375 84.91015625 C29.82112793 84.12012207 30.23991211 83.33008789 30.67138672 82.51611328 C33.13319096 77.85397537 35.56465703 73.17599784 38 68.5 C46.27008688 52.63318737 54.6198576 36.80891598 63 21 C64.2236094 24.67082821 63.70005997 25.27560382 62.10546875 28.6875 C61.42738159 30.16839111 61.42738159 30.16839111 60.7355957 31.67919922 C59.96928833 33.32299561 59.96928833 33.32299561 59.1875 35 C58.07619969 37.43818306 56.96847862 39.87762437 55.8671875 42.3203125 C55.56615616 42.98717072 55.26512482 43.65402893 54.95497131 44.34109497 C49.93150123 55.53635851 45.29715819 66.90196123 40.5847168 78.23046875 C39.85477898 79.98442662 39.12471816 81.73833331 38.39453125 83.4921875 C38.03947006 84.34528503 37.68440887 85.19838257 37.31858826 86.07733154 C33.28454333 95.74902468 29.14747056 105.37651097 25 115 C45.87573844 102.36070237 65.35391628 85.70859236 81 67 C81.66225586 66.22438721 81.66225586 66.22438721 82.33789062 65.43310547 C95.52734186 49.94889715 106.9743775 33.24745419 116 15 C119.18046187 16.40634466 121.33536362 18.07848343 123.79296875 20.52734375 C124.85572021 21.58405273 124.85572021 21.58405273 125.93994141 22.66210938 C126.68163574 23.41298828 127.42333008 24.16386719 128.1875 24.9375 C128.94981934 25.70513672 129.71213867 26.47277344 130.49755859 27.26367188 C136.05852922 32.9184134 141.15338856 38.71959934 146 45 C146.70125 45.82242188 147.4025 46.64484375 148.125 47.4921875 C148.785 48.27851563 149.445 49.06484375 150.125 49.875 C150.70507812 50.55304688 151.28515625 51.23109375 151.8828125 51.9296875 C153.39932921 54.74001567 152.86275889 55.9613349 152 59 C150.66821289 61.38085938 150.66821289 61.38085938 148.97265625 63.84375 C148.35044189 64.75382812 147.72822754 65.66390625 147.0871582 66.6015625 C146.419021 67.55804688 145.75088379 68.51453125 145.0625 69.5 C144.37953857 70.48742187 143.69657715 71.47484375 142.99291992 72.4921875 C137.87860245 79.84262468 132.65662132 87.05406852 127 94 C126.34281982 94.80945068 126.34281982 94.80945068 125.67236328 95.63525391 C114.4321097 109.38389213 102.0243075 122.0857662 88 133 C86.80254881 133.97263328 85.60738427 134.948086 84.4140625 135.92578125 C76.86513213 142.0883308 69.2154033 147.74369522 61 153 C62.05405029 152.80422363 62.05405029 152.80422363 63.12939453 152.60449219 C68.93473796 151.52666709 74.74051673 150.4512517 80.546875 149.37890625 C85.20446029 148.51868367 89.86068599 147.65176411 94.515625 146.77734375 C96.46872571 146.41393193 98.4218494 146.05064356 100.375 145.6875 C101.27621582 145.51637695 102.17743164 145.34525391 103.10595703 145.16894531 C107.11854957 144.42761364 110.89809481 143.77211638 115 144 C111.90586793 145.69425033 108.93657111 146.63596008 105.51635742 147.48046875 C103.86895821 147.89099487 103.86895821 147.89099487 102.1882782 148.30981445 C100.41478752 148.7442688 100.41478752 148.7442688 98.60546875 149.1875 C97.38475174 149.49067139 96.16403473 149.79384277 94.90632629 150.10620117 C91.66298592 150.91101248 88.41872388 151.71187006 85.17388916 152.51062012 C80.61506208 153.6337627 76.05795729 154.76386869 71.50080872 155.89379883 C69.07715185 156.49431461 66.6530854 157.09318036 64.2285614 157.69018555 C53.57085273 159.81768193 53.57085273 159.81768193 44.0625 164.625 C42.5465625 165.800625 42.5465625 165.800625 41 167 C43.43637439 168.6242496 45.07825434 169.49129272 47.76416016 170.41357422 C48.5194249 170.67541 49.27468964 170.93724579 50.05284119 171.20701599 C50.87329422 171.48674759 51.69374725 171.76647919 52.5390625 172.0546875 C53.83191917 172.50165733 53.83191917 172.50165733 55.15089417 172.95765686 C57.00815068 173.59955098 58.86602883 174.2396487 60.72445679 174.87814331 C65.59960238 176.55362998 70.46987804 178.24312027 75.33984375 179.93359375 C76.32078506 180.27393143 77.30172638 180.6142691 78.31239319 180.96492004 C87.63433785 184.20650827 96.91790413 187.54947986 106.1875 190.9375 C106.9008551 191.19811218 107.61421021 191.45872437 108.34918213 191.72723389 C112.23428362 193.14743183 116.117897 194.57162194 120 196 C115.86817794 197.70481287 112.1372079 196.22933604 108.046875 195.078125 C107.25027969 194.8621315 106.45368439 194.646138 105.63294983 194.42359924 C103.00276171 193.70802463 100.37652825 192.9788821 97.75 192.25 C95.9230226 191.75127165 94.09578896 191.25348113 92.26831055 190.7565918 C83.63817346 188.40425004 75.02008476 186.00891636 66.40536499 183.60079956 C62.75131528 182.57996285 59.09601327 181.56364355 55.4407959 180.54699707 C52.84954546 179.82285263 50.2611576 179.08908046 47.67285156 178.35449219 C46.08017264 177.90916702 44.48740395 177.46416279 42.89453125 177.01953125 C41.82369041 176.71094933 41.82369041 176.71094933 40.73121643 176.39613342 C36.71967323 175.28702369 33.15915731 174.79056352 29 175 C28.69559129 177.93682052 28.69559129 177.93682052 30.21815491 179.58729839 C30.79335373 180.15973184 31.36855255 180.73216528 31.96118164 181.32194519 C32.61748566 181.9823732 33.27378967 182.64280121 33.94998169 183.32324219 C35.0440181 184.40109985 35.0440181 184.40109985 36.16015625 185.50073242 C36.92093475 186.26194901 37.68171326 187.02316559 38.46554565 187.80744934 C40.99082035 190.33062814 43.52656756 192.84300546 46.0625 195.35546875 C47.81193105 197.09930673 49.56070247 198.84380669 51.30883789 200.58894348 C55.91858746 205.18722169 60.53727432 209.77642133 65.15783691 214.36383057 C69.86923712 219.04296714 74.57058564 223.73219643 79.2734375 228.41992188 C88.50734342 237.6216232 97.75042304 246.81405277 107 256 C102.87063919 256 101.30459135 253.78469557 98.5 251.0625 C94.58803727 247.36472838 90.63882485 243.81065003 86.4375 240.4375 C82.67161811 237.40642433 79.05670244 234.27418423 75.5 231 C71.0301488 226.88621091 66.40955107 223.02912703 61.68359375 219.21484375 C58.19164052 216.33283868 54.86448844 213.28825009 51.51953125 210.23828125 C48.96795083 207.97152842 46.34828468 205.82459913 43.6875 203.6875 C38.73012504 199.68346638 34.05085863 195.43978675 29.41479492 191.07299805 C25.44772932 187.22704881 25.44772932 187.22704881 21 184 C20.01 184.33 19.02 184.66 18 185 C20.69229339 195.01903073 24.70424005 204.477481 28.625 214.0625 C29.3796854 215.91593034 30.13415766 217.76944748 30.88842773 219.62304688 C33.24993348 225.41907167 35.6231117 231.21026876 38 237 C38.38677917 237.94236511 38.77355835 238.88473022 39.17205811 239.85565186 C41.79398773 246.24050664 44.42549473 252.62135853 47.0625 259 C47.4050885 259.83024689 47.747677 260.66049377 48.10064697 261.51589966 C49.09699497 263.92837756 50.0963948 266.3395575 51.09765625 268.75 C51.41420166 269.51344223 51.73074707 270.27688446 52.05688477 271.0634613 C53.74316311 275.09956896 55.48690029 279.10092661 57.30810547 283.078125 C57.68438583 283.90344727 58.0606662 284.72876953 58.448349 285.57910156 C59.17248497 287.1580864 59.9051495 288.73319602 60.6474762 290.30371094 C63.11006701 295.66979897 63.11006701 295.66979897 62 299 C57.78643733 290.62000132 53.57767407 282.23761257 49.37440968 273.8524437 C47.42082142 269.95553825 45.46581392 266.05936101 43.50708008 262.16503906 C34.12567642 243.51014783 24.95492796 224.79442817 16.28129578 205.79876709 C14.43804433 201.77250588 12.56508633 197.76033663 10.6875 193.75 C10.15511719 192.61046875 9.62273437 191.4709375 9.07421875 190.296875 C8.54248047 189.15992188 8.54248047 189.15992188 8 188 C5.52463285 190.47536715 5.70916175 191.30329392 5.57640076 194.7245636 C5.53302582 195.72137146 5.48965088 196.71817932 5.44496155 197.74519348 C5.40696945 198.84288559 5.36897736 199.9405777 5.32983398 201.0715332 C5.25865356 202.80093643 5.25865356 202.80093643 5.18603516 204.5652771 C5.03056691 208.39348199 4.88847266 212.22206909 4.74609375 216.05078125 C4.64019181 218.7039972 4.53346458 221.35716617 4.42555237 224.01029968 C4.17158008 230.29387821 3.92668491 236.57777298 3.6855908 242.86185759 C3.25397791 254.1069956 2.80928937 265.35161555 2.3579126 276.59597653 C2.17444655 281.17757406 1.99851055 285.75942636 1.82432556 290.34138489 C1.72996849 292.74102399 1.6354587 295.1406571 1.54077148 297.5402832 C1.50075516 298.63190262 1.46073883 299.72352203 1.41950989 300.84822083 C1.35867722 302.35612183 1.35867722 302.35612183 1.2966156 303.89448547 C1.26326331 304.76482579 1.22991102 305.63516611 1.19554806 306.53188038 C0.99333167 309.08416462 0.55150015 311.50183645 0 314 C-0.33 314 -0.66 314 -1 314 C-1.02283554 312.83442566 -1.04567108 311.66885132 -1.06919861 310.46795654 C-1.28728993 299.35122423 -1.50778553 288.23454171 -1.73049068 277.11790085 C-1.84484468 271.40609673 -1.95842214 265.69427961 -2.07006836 259.98242188 C-2.76068521 223.98336538 -2.76068521 223.98336538 -4 188 C-4.3686467 188.71795242 -4.7372934 189.43590485 -5.11711121 190.1756134 C-12.54363012 204.63126448 -20.23608725 218.87897127 -28.29345703 232.99414062 C-31.33502222 238.35147261 -34.32355166 243.73818676 -37.3125 249.125 C-37.92754395 250.23294922 -38.54258789 251.34089844 -39.17626953 252.48242188 C-42.59385863 258.64485326 -46.0014503 264.81271929 -49.40234375 270.984375 C-49.7669722 271.64593597 -50.13160065 272.30749695 -50.50727844 272.98910522 C-52.27630376 276.19910117 -54.04414426 279.40973932 -55.80981445 282.62158203 C-56.76247192 284.35190674 -56.76247192 284.35190674 -57.734375 286.1171875 C-58.57307129 287.64255127 -58.57307129 287.64255127 -59.42871094 289.19873047 C-60.90488191 291.83042495 -62.43298733 294.42157335 -64 297 C-64.33 296.34 -64.66 295.68 -65 295 C-64.15820312 292.81811523 -64.15820312 292.81811523 -62.78125 290.05859375 C-62.26933105 289.01815918 -61.75741211 287.97772461 -61.22998047 286.90576172 C-60.37364014 285.18897217 -60.37364014 285.18897217 -59.5 283.4375 C-58.27788901 280.95211732 -57.06383736 278.46284936 -55.8515625 275.97265625 C-55.53389923 275.32103516 -55.21623596 274.66941406 -54.88894653 273.99804688 C-51.41810356 266.85041443 -48.14013674 259.61833036 -44.875 252.375 C-40.61800648 242.94033587 -36.32866523 233.52255284 -31.96484375 224.13671875 C-31.53685486 223.21590515 -31.10886597 222.29509155 -30.66790771 221.34637451 C-28.56423052 216.82267992 -26.45673677 212.30079948 -24.34521484 207.78076172 C-18.85609327 196.02664884 -18.85609327 196.02664884 -14 184 C-15.79085313 183.24108598 -15.79085313 183.24108598 -18 183 C-20.08927805 184.01777856 -20.08927805 184.01777856 -22.09765625 185.69140625 C-22.88946289 186.29944092 -23.68126953 186.90747559 -24.49707031 187.53393555 C-25.76695801 188.53807495 -25.76695801 188.53807495 -27.0625 189.5625 C-28.87038874 190.95664388 -30.67899995 192.34985132 -32.48828125 193.7421875 C-33.40689941 194.4547168 -34.32551758 195.16724609 -35.27197266 195.90136719 C-39.38261159 199.06362352 -43.56387855 202.12630433 -47.75 205.1875 C-54.17740676 209.90813099 -60.57340387 214.66768733 -66.94458008 219.46386719 C-72.87128505 223.91901791 -78.84596892 228.30767179 -84.828125 232.68798828 C-88.88512027 235.66848542 -92.90646053 238.6848247 -96.87890625 241.77734375 C-98.04498413 242.68335327 -98.04498413 242.68335327 -99.23461914 243.60766602 C-100.71410261 244.76188316 -102.18879281 245.92227819 -103.65795898 247.08959961 C-104.31739502 247.60401611 -104.97683105 248.11843262 -105.65625 248.6484375 C-106.23181641 249.10395996 -106.80738281 249.55948242 -107.40039062 250.02880859 C-109 251 -109 251 -112 251 C-105.40867362 244.84579474 -98.74347506 238.90328481 -91.71484375 233.24609375 C-88.89326505 230.9116941 -86.19409288 228.48009402 -83.5 226 C-79.94329756 222.72581577 -76.32838189 219.59357567 -72.5625 216.5625 C-68.02683557 212.90428985 -63.7429883 209.05257035 -59.48071289 205.08618164 C-56.24806025 202.09573 -52.93303234 199.26220993 -49.5 196.5 C-44.90268232 192.79955788 -40.5420319 188.90940669 -36.22338867 184.89257812 C-33.48173297 182.34439243 -30.7007453 179.88029214 -27.8125 177.5 C-24.80440813 175.24483179 -24.80440813 175.24483179 -24 172 C-33.60127658 172.46700698 -42.89686894 174.40875657 -52.29519653 176.29470825 C-55.24842512 176.88722359 -58.20298807 177.47263626 -61.15795898 178.05639648 C-66.59162154 179.1309853 -72.02404571 180.21170522 -77.45617676 181.29400635 C-87.5680732 183.30847891 -97.68116491 185.31681519 -107.79605103 187.31622314 C-111.52458561 188.05498772 -115.25192517 188.79958326 -118.97924805 189.54443359 C-121.27908079 189.99994377 -123.57896437 190.4551974 -125.87890625 190.91015625 C-126.93210052 191.12222214 -127.9852948 191.33428802 -129.07040405 191.55278015 C-130.04434113 191.74427139 -131.0182782 191.93576263 -132.02172852 192.13305664 C-132.86671402 192.30132462 -133.71169952 192.46959259 -134.58229065 192.64295959 C-137.08944437 193.01320889 -139.46940735 193.06264341 -142 193 C-139.39359064 191.26239376 -138.00644607 190.58943805 -135.09765625 189.83349609 C-134.30514465 189.62443634 -133.51263306 189.41537659 -132.69610596 189.19998169 C-131.82701599 188.97672211 -130.95792603 188.75346252 -130.0625 188.5234375 C-129.13846375 188.28092255 -128.21442749 188.03840759 -127.26239014 187.7885437 C-125.24126324 187.25854773 -123.21948253 186.73104047 -121.19714355 186.20568848 C-115.69607703 184.77638995 -110.19977973 183.32896788 -104.703125 181.8828125 C-102.95083588 181.42243591 -102.95083588 181.42243591 -101.16314697 180.95275879 C-92.02988188 178.54816065 -82.91070377 176.094179 -73.796875 173.6171875 C-73.12539932 173.43472347 -72.45392365 173.25225945 -71.76210022 173.0642662 C-65.12529358 171.26027775 -58.48966292 169.4519886 -51.8546257 167.64150429 C-48.794005 166.80679038 -45.73287116 165.97396082 -42.671875 165.140625 C-41.56253601 164.83704071 -40.45319702 164.53345642 -39.3102417 164.22067261 C-38.28585999 163.94192291 -37.26147827 163.66317322 -36.20605469 163.37597656 C-34.87220734 163.01176605 -34.87220734 163.01176605 -33.51141357 162.64019775 C-31.01988791 162.00506973 -28.5254335 161.48078855 -26 161 C-26 159.35 -26 157.7 -26 156 C-27.24910156 155.77699219 -28.49820313 155.55398438 -29.78515625 155.32421875 C-37.490301 153.778886 -45.04095865 151.63364905 -52.62139893 149.57635498 C-67.37651006 145.57409624 -82.15637555 141.67983334 -96.98046875 137.94140625 C-97.65230886 137.77178942 -98.32414898 137.60217258 -99.01634789 137.42741585 C-105.70717808 135.73835682 -112.39930521 134.0547247 -119.09530735 132.38627911 C-122.1921794 131.61321223 -125.28729932 130.83317482 -128.3828125 130.0546875 C-130.08131599 129.63510521 -130.08131599 129.63510521 -131.81413269 129.20704651 C-133.37010918 128.81427773 -133.37010918 128.81427773 -134.95751953 128.41357422 C-135.86325714 128.18773651 -136.76899475 127.9618988 -137.70217896 127.72921753 C-140 127 -140 127 -143 125 C-137.84196264 125.60546854 -132.77431509 126.36258139 -127.671875 127.34765625 C-126.63702469 127.54584961 -126.63702469 127.54584961 -125.58126831 127.74804688 C-124.08745539 128.03417054 -122.59383912 128.32132247 -121.10040283 128.60940552 C-116.98743001 129.40227611 -112.8727403 130.18609714 -108.7578125 130.96875 C-107.88905487 131.13399673 -107.02029724 131.29924347 -106.12521362 131.46949768 C-95.96951812 133.39456708 -85.79711285 135.22659384 -75.625 137.0625 C-58.05525431 140.23585894 -40.51613835 143.54297224 -23 147 C-22.67 145.68 -22.34 144.36 -22 143 C-29.47007555 135.97203097 -37.25509148 129.56230016 -45.35693359 123.28320312 C-49.63864388 119.9392701 -53.81038813 116.45792027 -58 113 C-59.28761639 111.9399292 -60.57538793 110.88004683 -61.86328125 109.8203125 C-65.50274066 106.82508021 -69.14072043 103.82805658 -72.77832031 100.83056641 C-75.6487914 98.46542441 -78.51983096 96.10097347 -81.39111328 93.73681641 C-82.79343233 92.58190813 -84.1954522 91.4266365 -85.59716797 90.27099609 C-89.28211234 87.23367236 -92.97269399 84.20356829 -96.671875 81.18359375 C-97.43822266 80.55646484 -98.20457031 79.92933594 -98.99414062 79.28320312 C-100.45458344 78.08829537 -101.91671643 76.89544916 -103.38085938 75.70507812 C-107.12770116 72.63550803 -110.64334131 69.49326689 -114 66 C-111.11361832 67.36731839 -108.54523079 68.92437209 -105.9375 70.765625 C-105.15109131 71.31863281 -104.36468262 71.87164062 -103.55444336 72.44140625 C-102.2899939 73.33666016 -102.2899939 73.33666016 -101 74.25 C-99.18891321 75.52619939 -97.37771213 76.80223658 -95.56640625 78.078125 C-94.17832764 79.05749023 -94.17832764 79.05749023 -92.76220703 80.05664062 C-90.14833287 81.89563995 -87.52730364 83.72374517 -84.90234375 85.546875 C-75.74337943 91.91270547 -66.6826031 98.38827129 -57.72241211 105.03125 C-52.64329775 108.79646219 -47.52828639 112.50211681 -42.36816406 116.15527344 C-38.90175293 118.61798351 -35.47030749 121.12346441 -32.0546875 123.65625 C-31.19746094 124.29175781 -30.34023438 124.92726563 -29.45703125 125.58203125 C-27.7674639 126.83706539 -26.07987979 128.09477496 -24.39453125 129.35546875 C-23.23630859 130.21591797 -23.23630859 130.21591797 -22.0546875 131.09375 C-21.36874512 131.60615234 -20.68280273 132.11855469 -19.97607422 132.64648438 C-18.04730547 133.96759804 -16.11449241 135.00925656 -14 136 C-14.43726415 129.17611875 -16.46714251 124.19833651 -19.53125 118.1328125 C-19.99445145 117.19261261 -20.45765289 116.25241272 -20.93489075 115.28372192 C-22.44529351 112.22506649 -23.97232063 109.17505791 -25.5 106.125 C-26.55069042 104.00666431 -27.60040616 101.88784491 -28.64916992 99.76855469 C-31.26720181 94.48518847 -33.89896447 89.20880264 -36.53509521 83.93444824 C-38.2952185 80.40862818 -40.0468742 76.87866164 -41.79699707 73.34786987 C-51.79664305 53.11602321 -51.79664305 53.11602321 -62.3996582 33.19628906 C-63.32417719 31.4943105 -64.17215672 29.75104023 -65 28 C-64.67 27.34 -64.34 26.68 -64 26 C-53.88066594 42.59738621 -43.82755428 59.22756046 -34 76 C-33.45311523 76.93166992 -32.90623047 77.86333984 -32.34277344 78.82324219 C-22.76733662 95.14287715 -13.36181256 111.55723952 -4 128 C-3.19339783 125.12204325 -2.82888248 122.46132815 -2.70117188 119.4777832 C-2.66181519 118.57263474 -2.6224585 117.66748627 -2.58190918 116.73490906 C-2.54456665 115.74602188 -2.50722412 114.7571347 -2.46875 113.73828125 C-2.42721802 112.68699539 -2.38568604 111.63570953 -2.34289551 110.55256653 C-1.8740777 97.83934074 -1.7160062 85.12014484 -1.5541687 72.40011597 C-1.46312963 65.25099222 -1.35936106 58.10204872 -1.25390625 50.953125 C-1.24366991 50.25486036 -1.23343357 49.55659573 -1.22288704 48.83717155 C-0.98196285 32.55290068 -0.56652186 16.27611842 0 0 Z " fill="#FCFDFB" transform="translate(310,356)"/>
<path d="M0 0 C0.495 1.485 0.495 1.485 1 3 C-3.89173878 4.00312088 -8.78472275 4.99983922 -13.67895508 5.99072266 C-15.3427218 6.32849564 -17.00613881 6.66799612 -18.66918945 7.00927734 C-21.06370996 7.50035091 -23.4594315 7.98513839 -25.85546875 8.46875 C-26.5952446 8.62186646 -27.33502045 8.77498291 -28.09721375 8.93273926 C-31.78341791 9.67037764 -35.23776147 10.1808458 -39 10 C-35.58035011 7.72023341 -32.25782339 6.8301544 -28.33984375 5.80078125 C-27.22132774 5.50182198 -27.22132774 5.50182198 -26.08021545 5.19682312 C-24.50661886 4.77804778 -22.93225035 4.36216378 -21.35717773 3.94897461 C-18.94057824 3.3133097 -16.52790271 2.66407753 -14.11523438 2.01367188 C-12.58615587 1.60854989 -11.05686579 1.20422543 -9.52734375 0.80078125 C-8.80336899 0.60503006 -8.07939423 0.40927887 -7.33348083 0.20759583 C-2.22946687 -1.11473344 -2.22946687 -1.11473344 0 0 Z " fill="#EBF5EB" transform="translate(207,539)"/>
<path d="M0 0 C1.33072483 3.99217449 0.27239165 5.23935779 -1.45703125 9.0234375 C-1.99263672 10.209375 -2.52824219 11.3953125 -3.08007812 12.6171875 C-3.65722791 13.86994107 -4.234705 15.12254389 -4.8125 16.375 C-5.37916996 17.61937551 -5.94493572 18.8641632 -6.50976562 20.109375 C-7.55354245 22.40892634 -8.60168779 24.70650315 -9.65551758 27.00146484 C-10.84090095 29.64516897 -11.94764388 32.30108966 -13 35 C-14.32 34.67 -15.64 34.34 -17 34 C-11.65285504 22.48235431 -6.10803616 11.13426755 0 0 Z " fill="#F6FBF5" transform="translate(373,377)"/>
<path d="M0 0 C0.66 0 1.32 0 2 0 C3.83945212 4.17814595 5.67232679 8.35909276 7.49926758 12.54272461 C8.1211818 13.96440466 8.7448601 15.38531441 9.37036133 16.80541992 C10.27113601 18.85133218 11.16544941 20.899966 12.05859375 22.94921875 C12.3377916 23.5796257 12.61698944 24.21003265 12.90464783 24.85954285 C14.36022995 28.21744092 15.44400525 31.3785207 16 35 C12.07538438 30.12696041 9.5271804 24.46380785 6.73730469 18.90014648 C5.74891922 16.93535154 4.74584266 14.97851384 3.7421875 13.02148438 C3.11366673 11.77389886 2.48603125 10.52586685 1.859375 9.27734375 C1.28670898 8.14546631 0.71404297 7.01358887 0.12402344 5.84741211 C-1 3 -1 3 0 0 Z " fill="#EFF6EE" transform="translate(357,620)"/>
<path d="M0 0 C-3.34747476 1.86458427 -6.66622696 2.79565622 -10.375 3.7265625 C-11.60734375 4.0359375 -12.8396875 4.3453125 -14.109375 4.6640625 C-14.74810547 4.82165039 -15.38683594 4.97923828 -16.04492188 5.14160156 C-17.99531818 5.62384241 -19.9429986 6.11608113 -21.890625 6.609375 C-23.73914063 7.06957031 -23.73914063 7.06957031 -25.625 7.5390625 C-27.31496094 7.95986084 -27.31496094 7.95986084 -29.0390625 8.38916016 C-32 9 -32 9 -36 9 C-35.67 8.01 -35.34 7.02 -35 6 C-30.9375 5.1875 -26.875 4.375 -22.8125 3.5625 C-21.66201172 3.33240234 -20.51152344 3.10230469 -19.32617188 2.86523438 C-17.17163086 2.43432617 -15.01708984 2.00341797 -12.86254883 1.57250977 C-11.00749124 1.20149825 -9.15428492 0.82105603 -7.3034668 0.42944336 C-4.82368614 -0.03287081 -2.51679623 -0.07190846 0 0 Z " fill="#ECF4EB" transform="translate(425,500)"/>
<path d="M0 0 C2.79105241 2.44627535 4.19034998 5.02633967 5.75 8.375 C6.19859375 9.31085938 6.6471875 10.24671875 7.109375 11.2109375 C8.09542341 14.29882593 7.91475088 15.93223792 7 19 C2.75177626 18.52797514 0.80010291 16.03344482 -2 13 C-0.35 11.35 1.3 9.7 3 8 C2.505 7.05125 2.01 6.1025 1.5 5.125 C0 2 0 2 0 0 Z " fill="#119326" transform="translate(289,473)"/>
<path d="M0 0 C1.37209312 4.11627937 0.09601597 5.54076638 -1.74609375 9.41796875 C-2.03605728 10.03521317 -2.32602081 10.65245758 -2.62477112 11.28840637 C-3.5532015 13.25924879 -4.49511492 15.22329783 -5.4375 17.1875 C-6.0692579 18.52236158 -6.70012851 19.85764348 -7.33007812 21.19335938 C-8.87645176 24.46717981 -10.43498229 27.73504381 -12 31 C-12.66 31 -13.32 31 -14 31 C-14.33 31.66 -14.66 32.32 -15 33 C-15.66 32.67 -16.32 32.34 -17 32 C-16.5560791 31.17274414 -16.1121582 30.34548828 -15.65478516 29.49316406 C-14.00313076 26.41462896 -12.35198191 23.33582383 -10.70117188 20.25683594 C-9.98750632 18.92599863 -9.27364126 17.59526828 -8.55957031 16.26464844 C-7.53137185 14.34859057 -6.50389883 12.43214523 -5.4765625 10.515625 C-4.85861816 9.36352539 -4.24067383 8.21142578 -3.60400391 7.02441406 C-2.36953763 4.6967781 -1.16187794 2.3643455 0 0 Z " fill="#F2F8F1" transform="translate(778,379)"/>
<path d="M0 0 C3.56764285 1.51376081 5.83706287 3.60513129 8.546875 6.3515625 C9.39121094 7.20234375 10.23554688 8.053125 11.10546875 8.9296875 C12.41451172 10.26386719 12.41451172 10.26386719 13.75 11.625 C14.63816406 12.5221875 15.52632813 13.419375 16.44140625 14.34375 C18.63216969 16.55807004 20.81812763 18.77692435 23 21 C18.84984683 21 17.25596374 18.73659407 14.4375 16 C9.1815112 11.0274857 3.73030086 6.42450221 -2 2 C-1.34 1.34 -0.68 0.68 0 0 Z " fill="#E8F2E6" transform="translate(394,591)"/>
<path d="M0 0 C0.66 0.33 1.32 0.66 2 1 C-0.18589751 3.04340489 -2.37366351 5.08474714 -4.5625 7.125 C-5.17158203 7.69476563 -5.78066406 8.26453125 -6.40820312 8.8515625 C-9.51880207 11.7482049 -12.65210994 14.61800214 -15.83984375 17.4296875 C-16.39921631 17.92452637 -16.95858887 18.41936523 -17.53491211 18.92919922 C-19 20 -19 20 -21 20 C-18.33193494 13.45111304 -12.11960522 9.37766149 -6.6875 5.1875 C-6.04232422 4.68541016 -5.39714844 4.18332031 -4.73242188 3.66601562 C-3.15732875 2.44094319 -1.57899684 1.2200368 0 0 Z " fill="#EFF5EE" transform="translate(819,425)"/>
<path d="M0 0 C10.73345601 2.08458367 21.43450162 4.16535409 32 7 C28.10884405 8.40990122 24.84454213 7.67879601 20.828125 7.00390625 C20.1457074 6.89151108 19.46328979 6.77911591 18.76019287 6.66331482 C16.5887945 6.30390763 14.41946661 5.93337159 12.25 5.5625 C10.77486243 5.31632003 9.29960302 5.07086896 7.82421875 4.82617188 C4.21469558 4.22588786 0.60694447 3.61561135 -3 3 C-2.01 2.67 -1.02 2.34 0 2 C0 1.34 0 0.68 0 0 Z " fill="#E9F3E8" transform="translate(824,538)"/>
<path d="M0 0 C4.43444237 4.15116542 6.9354579 8.83483416 9.8125 14.125 C10.32748047 15.04410156 10.84246094 15.96320312 11.37304688 16.91015625 C11.85451172 17.78800781 12.33597656 18.66585937 12.83203125 19.5703125 C13.27264893 20.37227051 13.7132666 21.17422852 14.16723633 22.00048828 C14.44204834 22.66032715 14.71686035 23.32016602 15 24 C14.67 24.66 14.34 25.32 14 26 C13.68772461 25.51644043 13.37544922 25.03288086 13.05371094 24.53466797 C11.61959027 22.31448783 10.18479986 20.09474126 8.75 17.875 C8.25886719 17.11445312 7.76773438 16.35390625 7.26171875 15.5703125 C6.53662109 14.44882812 6.53662109 14.44882812 5.796875 13.3046875 C5.32443359 12.56959961 4.85199219 11.83451172 4.36523438 11.07714844 C3.50698861 9.77136251 2.62576873 8.48010815 1.71289062 7.21191406 C0.578125 5.6328125 0.578125 5.6328125 -1 3 C-0.67 2.01 -0.34 1.02 0 0 Z " fill="#E4F0E3" transform="translate(772,620)"/>
<path d="M0 0 C0.33 0 0.66 0 1 0 C1.34044412 3.79106256 1.67102759 7.58292614 2 11.375 C2.09539063 12.43589844 2.19078125 13.49679687 2.2890625 14.58984375 C2.84649792 21.07998467 3.13132994 27.48639986 3 34 C2.67 34 2.34 34 2 34 C0.68 24.1 -0.64 14.2 -2 4 C-1.34 4 -0.68 4 0 4 C0 2.68 0 1.36 0 0 Z " fill="#E9F1E6" transform="translate(725,636)"/>
<path d="M0 0 C0.66 0.33 1.32 0.66 2 1 C-0.48854328 6.2395501 -4.44224089 8.97527958 -9 12.3125 C-10.08667969 13.13717773 -10.08667969 13.13717773 -11.1953125 13.97851562 C-16.61057842 18 -16.61057842 18 -20 18 C-13.40235323 11.91916889 -6.79775623 5.8580664 0 0 Z " fill="#E6F0E6" transform="translate(218,589)"/>
<path d="M0 0 C0.66 0.33 1.32 0.66 2 1 C1.54109375 1.44730469 1.0821875 1.89460937 0.609375 2.35546875 C-2.84327458 5.75734407 -5.99369846 9.19201805 -9 13 C-10.64646685 14.68662458 -12.31183067 16.35511706 -14 18 C-14.598125 18.598125 -15.19625 19.19625 -15.8125 19.8125 C-16.204375 20.204375 -16.59625 20.59625 -17 21 C-17.99 20.67 -18.98 20.34 -20 20 C-13.4 13.4 -6.8 6.8 0 0 Z " fill="#09911F" transform="translate(676,569)"/>
<path d="M0 0 C-9.24 2.64 -18.48 5.28 -28 8 C-28 7.01 -28 6.02 -28 5 C-23.02488603 3.23231481 -18.0162752 1.97410949 -12.875 0.8125 C-12.07707031 0.62236328 -11.27914062 0.43222656 -10.45703125 0.23632812 C-9.68488281 0.06166016 -8.91273438 -0.11300781 -8.1171875 -0.29296875 C-7.42222168 -0.4530542 -6.72725586 -0.61313965 -6.01123047 -0.77807617 C-4 -1 -4 -1 0 0 Z " fill="#EAF2E7" transform="translate(852,480)"/>
<path d="M0 0 C0.33 0 0.66 0 1 0 C1.63149942 10.67910627 2.17291697 21.2983611 2 32 C2.66 32.33 3.32 32.66 4 33 C2.68 33.66 1.36 34.32 0 35 C0 23.45 0 11.9 0 0 Z " fill="#0E8F21" transform="translate(316,447)"/>
<path d="M0 0 C0.33 0 0.66 0 1 0 C1.33 9.24 1.66 18.48 2 28 C-3.25498175 20.11752737 -1.40685989 8.9687318 0 0 Z " fill="#D7E8D5" transform="translate(712,355)"/>
<path d="M0 0 C0.12375 0.639375 0.2475 1.27875 0.375 1.9375 C0.58125 2.618125 0.7875 3.29875 1 4 C1.66 4.33 2.32 4.66 3 5 C2.34 5 1.68 5 1 5 C1 5.66 1 6.32 1 7 C-2.96 7.66 -6.92 8.32 -11 9 C-7.40360547 5.40360547 -4.13521513 2.86284125 0 0 Z " fill="#1F9A31" transform="translate(381,501)"/>
<path d="M0 0 C3.31232312 3.12810644 5.421226 6.67998562 7.75 10.5625 C8.17410156 11.24763672 8.59820312 11.93277344 9.03515625 12.63867188 C10.08912404 14.38784643 11.052497 16.19094007 12 18 C11.67 18.66 11.34 19.32 11 20 C10.34 20 9.68 20 9 20 C7.49352402 17.04492094 5.99593635 14.08542659 4.5 11.125 C4.07074219 10.28324219 3.64148438 9.44148438 3.19921875 8.57421875 C2.79316406 7.76855469 2.38710937 6.96289062 1.96875 6.1328125 C1.59169922 5.38918457 1.21464844 4.64555664 0.82617188 3.87939453 C0 2 0 2 0 0 Z " fill="#E7F1E6" transform="translate(245,382)"/>
<path d="M0 0 C0.99 0.66 1.98 1.32 3 2 C0.03 9.59 -2.94 17.18 -6 25 C-7.18878413 21.43364762 -6.72013686 20.39620485 -5.56640625 16.89453125 C-5.24736328 15.91162109 -4.92832031 14.92871094 -4.59960938 13.91601562 C-4.25736328 12.89185547 -3.91511719 11.86769531 -3.5625 10.8125 C-3.22412109 9.77673828 -2.88574219 8.74097656 -2.53710938 7.67382812 C-1.69929252 5.1131766 -0.85331644 2.5555198 0 0 Z " fill="#D8E9D6" transform="translate(672,634)"/>
<path d="M0 0 C4.2829452 0.5479083 6.85135641 2.02432804 10.3125 4.5625 C11.19550781 5.20316406 12.07851563 5.84382812 12.98828125 6.50390625 C13.65214844 6.99761719 14.31601562 7.49132812 15 8 C14.01 8.495 14.01 8.495 13 9 C10.3984375 7.56640625 10.3984375 7.56640625 7.375 5.5625 C6.37210938 4.90378906 5.36921875 4.24507812 4.3359375 3.56640625 C3.56507813 3.04949219 2.79421875 2.53257812 2 2 C2.30035156 2.55429687 2.60070312 3.10859375 2.91015625 3.6796875 C3.29042969 4.40414062 3.67070313 5.12859375 4.0625 5.875 C4.63677734 6.95394531 4.63677734 6.95394531 5.22265625 8.0546875 C5.47917969 8.69664062 5.73570312 9.33859375 6 10 C5.67 10.66 5.34 11.32 5 12 C3.96951963 10.3811004 2.95085322 8.75467511 1.9375 7.125 C1.36902344 6.22007812 0.80054688 5.31515625 0.21484375 4.3828125 C-0.18605469 3.59648438 -0.58695313 2.81015625 -1 2 C-0.67 1.34 -0.34 0.68 0 0 Z " fill="#189025" transform="translate(730,539)"/>
<path d="M0 0 C6.9857546 1.10884994 13.41652346 3.46505389 20 6 C16.8151065 7.0354051 14.86968126 6.94040666 11.671875 6.00390625 C10.47304688 5.66069336 10.47304688 5.66069336 9.25 5.31054688 C8.425 5.06369141 7.6 4.81683594 6.75 4.5625 C5.90953125 4.31951172 5.0690625 4.07652344 4.203125 3.82617188 C2.13284266 3.22626051 0.06606103 2.61429181 -2 2 C-1.34 1.34 -0.68 0.68 0 0 Z " fill="#E7F1E7" transform="translate(410,546)"/>
<path d="M0 0 C7.76783437 0.79263616 15.3629639 2.41889487 23 4 C22.67 4.66 22.34 5.32 22 6 C16.87475334 5.36684209 12.03469229 4.31839344 7.0625 2.9375 C6.37865234 2.75123047 5.69480469 2.56496094 4.99023438 2.37304688 C3.32579707 1.91910943 1.66274688 1.46009084 0 1 C0 0.67 0 0.34 0 0 Z " fill="#E2EEE0" transform="translate(167,481)"/>
<path d="M0 0 C1.12642186 3.37926557 0.96344705 3.72928278 -0.43359375 6.79296875 C-0.75263672 7.50517578 -1.07167969 8.21738281 -1.40039062 8.95117188 C-1.74263672 9.68916016 -2.08488281 10.42714844 -2.4375 11.1875 C-2.77587891 11.93708984 -3.11425781 12.68667969 -3.46289062 13.45898438 C-4.2999411 15.30992698 -5.14885404 17.15549666 -6 19 C-6.99 19 -7.98 19 -9 19 C-7.6077541 14.37324343 -5.70479016 10.35313769 -3.375 6.125 C-2.74335938 4.97257812 -2.11171875 3.82015625 -1.4609375 2.6328125 C-0.97882813 1.76398438 -0.49671875 0.89515625 0 0 Z " fill="#E7F2E7" transform="translate(373,377)"/>
<path d="M0 0 C4.72843614 1.57313172 8.3433843 4.20641235 12.3125 7.125 C12.95767578 7.59292969 13.60285156 8.06085937 14.26757812 8.54296875 C15.84848894 9.6905929 17.42472301 10.84465477 19 12 C18.01 12.495 18.01 12.495 17 13 C15.66195312 12.04287109 15.66195312 12.04287109 14.296875 11.06640625 C13.1148073 10.23145367 11.93250316 9.39683574 10.75 8.5625 C10.16347656 8.14162109 9.57695313 7.72074219 8.97265625 7.28710938 C4.81848428 4.36500437 4.81848428 4.36500437 0 3 C0 2.01 0 1.02 0 0 Z " fill="#179125" transform="translate(793,580)"/>
<path d="M0 0 C1 2 1 2 0.56274414 3.78759766 C0.30614014 4.48933105 0.04953613 5.19106445 -0.21484375 5.9140625 C-0.48876953 6.67460938 -0.76269531 7.43515625 -1.04492188 8.21875 C-1.33947266 9.0128125 -1.63402344 9.806875 -1.9375 10.625 C-2.22818359 11.42679688 -2.51886719 12.22859375 -2.81835938 13.0546875 C-3.53882525 15.03892138 -4.26855138 17.01978837 -5 19 C-6.1771611 15.46851671 -5.71692656 14.44788734 -4.5625 11 C-3.59566887 8.08649992 -3 6.09134934 -3 3 C-1.5 1.3125 -1.5 1.3125 0 0 Z " fill="#0D8C1C" transform="translate(698,550)"/>
<path d="M0 0 C3.52238047 1.56367357 6.27123994 3.69495889 9.25 6.125 C10.14203125 6.84945313 11.0340625 7.57390625 11.953125 8.3203125 C12.62859375 8.87460937 13.3040625 9.42890625 14 10 C13.01 10.66 12.02 11.32 11 12 C9.16364422 10.19047409 7.33083792 8.37759362 5.5 6.5625 C4.97535156 6.04623047 4.45070313 5.52996094 3.91015625 4.99804688 C2.58775448 3.68423213 1.29164432 2.34406495 0 1 C0 0.67 0 0.34 0 0 Z " fill="#E4F0E4" transform="translate(604,418)"/>
<path d="M0 0 C1.42600325 4.27800976 -0.54362936 6.86765922 -2.4375 10.6875 C-2.77587891 11.38939453 -3.11425781 12.09128906 -3.46289062 12.81445312 C-4.29981348 14.54723706 -5.14877393 16.27419752 -6 18 C-6.99 17.67 -7.98 17.34 -9 17 C-6.03 11.39 -3.06 5.78 0 0 Z " fill="#E9F2E8" transform="translate(778,379)"/>
<path d="M0 0 C3.54506192 1.62059974 6.59021257 3.72629052 9.75 6 C10.73484375 6.70125 11.7196875 7.4025 12.734375 8.125 C13.48203125 8.74375 14.2296875 9.3625 15 10 C15 10.66 15 11.32 15 12 C11.26427172 10.37228982 8.38341608 8.01966695 5.25 5.4375 C4.26515625 4.63183594 3.2803125 3.82617188 2.265625 2.99609375 C1.51796875 2.33738281 0.7703125 1.67867188 0 1 C0 0.67 0 0.34 0 0 Z " fill="#DCEADB" transform="translate(196,422)"/>
<path d="M0 0 C2 3 2 3 2 7 C0.35 7.33 -1.3 7.66 -3 8 C-4.32 6.35 -5.64 4.7 -7 3 C-4.525 3.99 -4.525 3.99 -2 5 C-1.34 3.35 -0.68 1.7 0 0 Z " fill="#16952A" transform="translate(693,480)"/>
<path d="M0 0 C1 3 1 3 0.00390625 5.04296875 C-0.47175781 5.75066406 -0.94742187 6.45835937 -1.4375 7.1875 C-1.91058594 7.90292969 -2.38367188 8.61835937 -2.87109375 9.35546875 C-3.24363281 9.89816406 -3.61617187 10.44085937 -4 11 C-5.04528847 7.76591956 -5.06464549 7.15699619 -3.6875 3.8125 C-2 1 -2 1 0 0 Z " fill="#F0F6EF" transform="translate(259,625)"/>
<path d="M0 0 C1.04449911 3.13349732 0.93423645 3.98968256 0 7 C0.66 7.33 1.32 7.66 2 8 C0.35 9.32 -1.3 10.64 -3 12 C-3.66 11.67 -4.32 11.34 -5 11 C-3.35 7.37 -1.7 3.74 0 0 Z " fill="#149224" transform="translate(339,460)"/>
<path d="M0 0 C0.33 0.66 0.66 1.32 1 2 C0.00390625 4.1640625 0.00390625 4.1640625 -1.4375 6.625 C-1.91058594 7.44226563 -2.38367188 8.25953125 -2.87109375 9.1015625 C-3.24363281 9.72804688 -3.61617187 10.35453125 -4 11 C-4.99 10.01 -5.98 9.02 -7 8 C-6.34 7.01 -5.68 6.02 -5 5 C-4.34 5 -3.68 5 -3 5 C-1.3553326 2.53673288 -1.3553326 2.53673288 0 0 Z " fill="#15972B" transform="translate(760,411)"/>
<path d="M0 0 C0.66 0.33 1.32 0.66 2 1 C-0.07143201 5.03384128 -1.96615872 6.92856799 -6 9 C-6.66 8.34 -7.32 7.68 -8 7 C-5.36 4.69 -2.72 2.38 0 0 Z " fill="#EDF4ED" transform="translate(218,589)"/>
<path d="M0 0 C0.66 0 1.32 0 2 0 C2 2.97 2 5.94 2 9 C1.34 8.01 0.68 7.02 0 6 C-0.66 7.65 -1.32 9.3 -2 11 C-3.13643966 7.59068103 -2.86747764 6.99664544 -1.5625 3.8125 C-1.13130859 2.73935547 -1.13130859 2.73935547 -0.69140625 1.64453125 C-0.46324219 1.10183594 -0.23507812 0.55914063 0 0 Z " fill="#168F21" transform="translate(708,548)"/>
<path d="M0 0 C0.66 0.33 1.32 0.66 2 1 C0.92643323 2.15498897 -0.15929788 3.29867867 -1.25 4.4375 C-1.85328125 5.07558594 -2.4565625 5.71367187 -3.078125 6.37109375 C-5.10048016 8.08516306 -6.41270605 8.59358878 -9 9 C-6.21000549 5.51250686 -3.74764169 2.49842779 0 0 Z " fill="#0C9221" transform="translate(192,359)"/>
<path d="M0 0 C1 3 1 3 0.22265625 4.82421875 C-0.8515625 6.54947917 -1.92578125 8.27473958 -3 10 C-3.33 10 -3.66 10 -4 10 C-4.25 7.25 -4.25 7.25 -4 4 C-2 1.625 -2 1.625 0 0 Z " fill="#17962D" transform="translate(740,447)"/>
<path d="M0 0 C2.52588702 2.36292656 3.88820837 3.66462511 5 7 C3.125 6.8125 3.125 6.8125 1 6 C-0.25 3.4375 -0.25 3.4375 -1 1 C-0.67 0.67 -0.34 0.34 0 0 Z " fill="#ECF5EC" transform="translate(772,620)"/>
<path d="M0 0 C2 3 2 3 1.625 6.1875 C1.41875 7.115625 1.2125 8.04375 1 9 C-0.32 7.68 -1.64 6.36 -3 5 C-2.67 4.34 -2.34 3.68 -2 3 C-1.34 3 -0.68 3 0 3 C0 2.01 0 1.02 0 0 Z " fill="#1AA139" transform="translate(294,482)"/>
<path d="M0 0 C0.33 0.66 0.66 1.32 1 2 C0.22265625 3.9453125 0.22265625 3.9453125 -0.9375 6.125 C-1.31777344 6.84945313 -1.69804687 7.57390625 -2.08984375 8.3203125 C-2.39019531 8.87460937 -2.69054687 9.42890625 -3 10 C-4.15941038 6.52176885 -3.70820884 4.54104422 -3 1 C-2.01 0.67 -1.02 0.34 0 0 Z " fill="#0C9123" transform="translate(324,469)"/>
<path d="M0 0 C1 3 1 3 0.22265625 4.82421875 C-0.8515625 6.54947917 -1.92578125 8.27473958 -3 10 C-4.53445094 6.93109813 -3.54984289 4.29905734 -3 1 C-2.01 0.67 -1.02 0.34 0 0 Z " fill="#129528" transform="translate(252,634)"/>
<path d="M0 0 C5.03985731 0.44469329 7.37634988 2.71343362 11 6 C7.61121488 6 6.60242783 5.35638802 3.8125 3.5625 C2.73935547 2.88380859 2.73935547 2.88380859 1.64453125 2.19140625 C1.10183594 1.79824219 0.55914063 1.40507813 0 1 C0 0.67 0 0.34 0 0 Z " fill="#EEF4ED" transform="translate(821,598)"/>
<path d="M0 0 C4 4.625 4 4.625 4 8 C2.68 7.67 1.36 7.34 0 7 C0 4.69 0 2.38 0 0 Z " fill="#13962B" transform="translate(720,545)"/>
<path d="M0 0 C2.475 0.99 2.475 0.99 5 2 C4.01 3.485 4.01 3.485 3 5 C2.01 5 1.02 5 0 5 C0 3.35 0 1.7 0 0 Z " fill="#1B972B" transform="translate(666,502)"/>
<path d="M0 0 C0.33 0.99 0.66 1.98 1 3 C-0.375 4.5 -0.375 4.5 -2 6 C-2.66 6 -3.32 6 -4 6 C-4.33 6.66 -4.66 7.32 -5 8 C-4.45773019 4.20411134 -2.79872437 2.52788007 0 0 Z " fill="#0D9524" transform="translate(435,452)"/>
<path d="M0 0 C3 0 3 0 5 1 C2.03 3.475 2.03 3.475 -1 6 C-1.66 5.67 -2.32 5.34 -3 5 C-1.6875 2.5 -1.6875 2.5 0 0 Z " fill="#109526" transform="translate(815,424)"/>
</svg>
